<?xml version="1.0" encoding="UTF-8" standalone="no"?>
<!-- Created with Inkscape (http://www.inkscape.org/) -->

<svg
   xmlns:dc="http://purl.org/dc/elements/1.1/"
   xmlns:cc="http://creativecommons.org/ns#"
   xmlns:rdf="http://www.w3.org/1999/02/22-rdf-syntax-ns#"
   xmlns:svg="http://www.w3.org/2000/svg"
   xmlns="http://www.w3.org/2000/svg"
   xmlns:sodipodi="http://sodipodi.sourceforge.net/DTD/sodipodi-0.dtd"
   xmlns:inkscape="http://www.inkscape.org/namespaces/inkscape"
   id="svg2"
   version="1.1"
   inkscape:version="0.48.3.1 r9886"
   width="36"
   height="36"
   sodipodi:docname="icon_small36.svg"
   inkscape:export-filename="/home/tshalif/src/ws/talos-rowing/etc/art/icon_small72.png"
   inkscape:export-xdpi="180"
   inkscape:export-ydpi="180">
  <metadata
     id="metadata8">
    <rdf:RDF>
      <cc:Work
         rdf:about="">
        <dc:format>image/svg+xml</dc:format>
        <dc:type
           rdf:resource="http://purl.org/dc/dcmitype/StillImage" />
        <dc:title></dc:title>
      </cc:Work>
    </rdf:RDF>
  </metadata>
  <defs
     id="defs6" />
  <sodipodi:namedview
     pagecolor="#ffffff"
     bordercolor="#666666"
     borderopacity="1"
     objecttolerance="10"
     gridtolerance="10"
     guidetolerance="10"
     inkscape:pageopacity="0"
     inkscape:pageshadow="2"
     inkscape:window-width="1280"
     inkscape:window-height="969"
     id="namedview4"
     showgrid="false"
     fit-margin-top="0"
     fit-margin-left="0"
     fit-margin-right="0"
     fit-margin-bottom="0"
     inkscape:zoom="3.6875"
     inkscape:cx="-16.457312"
     inkscape:cy="-20.496611"
     inkscape:window-x="-3"
     inkscape:window-y="-3"
     inkscape:window-maximized="1"
     inkscape:current-layer="g3009" />
  <g
     transform="matrix(1.125,0,0,1.1076923,0,0.55384615)"
     id="g3009">
    <path
       style="fill:#fefefe"
       d="m 12,7 c 0,-0.55 0.45,-1 1,-1 0.55,0 1,0.45 1,1 0,0.55 -0.45,1 -1,1 -0.55,0 -1,-0.45 -1,-1 z m 6,0 c 0,-0.55 0.45,-1 1,-1 0.55,0 1,0.45 1,1 0,0.55 -0.45,1 -1,1 -0.55,0 -1,-0.45 -1,-1 z"
       id="path3017"
       inkscape:connector-curvature="0" />
    <path
       style="fill:#bbbab9"
       d="m 0,27 0,-5 3,0 3,0 0,5 0,5 -3,0 -3,0 0,-5 z m 26,0 0,-5 3,0 3,0 0,5 0,5 -3,0 -3,0 0,-5 z"
       id="path3015"
       inkscape:connector-curvature="0" />
    <path
       style="fill:#96bf23"
       d="m 10,28 0,-4 -1,0 -1,0 0,-6 0,-6 8,0 8,0 0,6 0,6 -1,0 -1,0 0,4 0,4 -2,0 -2,0 0,-3 0,-3 -2,0 -2,0 0,3 0,3 -2,0 -2,0 0,-4 z M 0,14 0,12 3,12 c 3.3551392,0 3.6539288,0.488928 1.5714286,2.571429 L 3.1428571,16 1.5714286,16 0,16 0,14 z m 27.25,0.504169 C 25.401472,12.404602 25.684222,12 29,12 l 3,0 0,2 0,2 -1.75,-0.03804 -1.75,-0.03804 -1.25,-1.419757 z M 8,8.3672954 8,6.7345908 10.217923,4.8109963 12.435846,2.8874018 10.996883,1.9980739 9.5579207,1.108746 10.415865,0.30437299 11.27381,-0.5 11.720238,0.75 12.166667,2 16,2 19.833333,2 20.279762,0.75 20.72619,-0.5 21.584135,0.30437299 22.442079,1.108746 21.003117,1.9980739 19.564154,2.8874018 21.782077,4.8109963 24,6.7345908 24,8.3672954 24,10 16,10 8,10 8,8.3672954 z M 14,7 c 0,-0.55 -0.45,-1 -1,-1 -0.55,0 -1,0.45 -1,1 0,0.55 0.45,1 1,1 0.55,0 1,-0.45 1,-1 z m 6,0 c 0,-0.55 -0.45,-1 -1,-1 -0.55,0 -1,0.45 -1,1 0,0.55 0.45,1 1,1 0.55,0 1,-0.45 1,-1 z"
       id="path3013"
       inkscape:connector-curvature="0" />
    <path
       style="fill:#727272;fill-opacity:1"
       d="m 2,19 0,-3 1,0 1,0 0,3 0,3 -1,0 -1,0 0,-3 z m 26,0 0,-3 1,0 1,0 0,3 0,3 -1,0 -1,0 0,-3 z M 2,8 2,4 3,4 4,4 4,8 4,12 3,12 2,12 2,8 z m 26,0 0,-4 1,0 1,0 0,4 0,4 -1,0 -1,0 0,-4 z"
       id="path3011"
       inkscape:connector-curvature="0" />
  </g>
</svg>
